HIERARCHY
ROOT hip
{
	OFFSET 0.000000 0.000000 0.000000 
	CHANNELS 6 Xposition Yposition Zposition Xrotation Zrotation Yrotation
	JOINT abdomen
	{
		OFFSET 0.000000 3.402643 0.000000 
		CHANNELS 3 Xrotation Zrotation Yrotation
		JOINT chest
		{
			OFFSET 0.000000 8.438565 -0.680529 
			CHANNELS 3 Xrotation Zrotation Yrotation
			JOINT neck
			{
				OFFSET 0.000000 10.207942 -0.272212 
				CHANNELS 3 Xrotation Zrotation Yrotation
				JOINT head
				{
					OFFSET 0.000000 3.130431 0.000000 
					CHANNELS 3 Xrotation Zrotation Yrotation
					End Site
					{
						OFFSET 0.000000 3.130435 0.000000 
					}
				}
			}
			JOINT lCollar
			{
				OFFSET 3.470700 6.669187 -0.816635 
				CHANNELS 3 Yrotation Zrotation Xrotation
				JOINT lShldr
				{
					OFFSET 3.198488 0.000000 0.000000 
					CHANNELS 3 Zrotation Yrotation Xrotation
					JOINT lForeArm
					{
						OFFSET 10.139888 0.000000 0.000000 
						CHANNELS 3 Yrotation Zrotation Xrotation
						JOINT lHand
						{
							OFFSET 8.370511 0.000000 0.000000 
							CHANNELS 3 Zrotation Yrotation Xrotation
							End Site
							{
								OFFSET 4.083176 0.000000 0.000000 
							}
						}
					}
				}
			}
			JOINT rCollar
			{
				OFFSET -3.470700 6.669187 -0.816635 
				CHANNELS 3 Yrotation Zrotation Xrotation
				JOINT rShldr
				{
					OFFSET -3.198488 0.000000 0.000000 
					CHANNELS 3 Zrotation Yrotation Xrotation
					JOINT rForeArm
					{
						OFFSET -10.139888 0.000000 0.000000 
						CHANNELS 3 Yrotation Zrotation Xrotation
						JOINT rHand
						{
							OFFSET -8.370511 0.000000 0.000000 
							CHANNELS 3 Zrotation Yrotation Xrotation
							End Site
							{
								OFFSET -4.083176 0.000000 0.000000 
							}
						}
					}
				}
			}
		}
	}
	JOINT lThigh
	{
		OFFSET 5.308129 -1.633274 1.361059 
		CHANNELS 3 Xrotation Zrotation Yrotation
		JOINT lShin
		{
			OFFSET -2.041588 -20.007561 0.000000 
			CHANNELS 3 Xrotation Zrotation Yrotation
			JOINT lFoot
			{
				OFFSET 0.000000 -19.190928 -1.224953 
				CHANNELS 3 Xrotation Yrotation Zrotation
				End Site
				{
					OFFSET 0.000000 -2.449906 4.627600 
				}
			}
		}
	}
	JOINT rThigh
	{
		OFFSET -5.308129 -1.633274 1.361059 
		CHANNELS 3 Xrotation Zrotation Yrotation
		JOINT rShin
		{
			OFFSET 2.041588 -20.007561 0.000000 
			CHANNELS 3 Xrotation Zrotation Yrotation
			JOINT rFoot
			{
				OFFSET 0.000000 -19.190928 -1.224953 
				CHANNELS 3 Xrotation Yrotation Zrotation
				End Site
				{
					OFFSET 0.000000 -2.449906 4.627600 
				}
			}
		}
	}
}
MOTION
Frames: 6
Frame Time: 0.016667
-4.283520 51.063061 94.755417 6.140815 4.551199 43.943539 11.140601 -5.712570 0.608294 0.000000 0.000000 0.000000 -30.599773 7.640759 -11.410712 0.000000 0.000000 0.000000 0.000000 0.000000 0.000000 -18.310463 6.171178 11.391655 39.919479 137.576172 -89.721733 17.992704 15.267921 -72.754227 0.000000 0.000000 0.000000 21.481482 -10.089124 -5.073854 109.060516 -34.936466 58.971210 -15.110888 1.431971 -59.498268 -2.363383 -8.778709 0.856313 2.465253 0.302357 6.552102 18.424095 -0.318126 -0.163444 -1.659361 -4.565664 -10.872060 3.515279 0.048915 -4.017416 11.698844 2.503416 -1.695649 
-4.267833 50.645531 94.677620 5.437735 3.501654 44.832912 9.644440 -4.755665 0.519035 0.000000 0.000000 0.000000 -31.136387 7.558975 -11.241055 0.000000 0.000000 0.000000 0.000000 0.000000 0.000000 -23.808393 3.855830 6.274116 -134.305435 47.911259 86.291061 19.181595 21.173151 -74.492607 0.000000 0.000000 0.000000 23.668043 -8.871854 -12.362748 92.994186 -39.618954 53.086430 -4.817660 -2.494168 -51.465664 -1.589918 -7.902709 -0.844512 1.721389 0.467668 6.207637 13.857365 -0.002234 -0.180267 -0.702025 -3.057550 -10.841307 2.224505 -0.068478 -4.693596 8.988037 2.483254 -2.186218 
-4.357416 50.449554 94.655235 5.174474 2.529793 45.447372 8.589952 -4.404173 0.430669 0.000000 0.000000 0.000000 -32.811020 8.092641 -11.689132 0.000000 0.000000 0.000000 0.000000 0.000000 0.000000 -21.981117 6.164189 7.086331 -115.093430 49.136486 73.359871 16.373760 17.730988 -71.793556 0.000000 0.000000 0.000000 18.736893 -12.336207 -6.174726 79.082451 -33.435360 47.450638 10.462463 1.492001 -37.675293 -1.492317 -7.394101 -2.764967 1.470746 0.779682 6.850780 9.902059 -0.005316 -0.264424 0.136771 -1.666901 -10.721361 0.548541 -0.270043 -5.713138 6.734734 2.957865 -2.414176 
-4.446340 50.256325 94.632545 4.902614 1.572623 46.057808 7.555237 -4.062436 0.322839 0.000000 0.000000 0.000000 -34.470509 8.605014 -12.139524 0.000000 0.000000 0.000000 0.000000 0.000000 0.000000 -20.063437 8.443109 8.024031 -96.250534 47.470692 60.760010 13.421583 14.341628 -68.999260 0.000000 0.000000 0.000000 13.361707 -15.255451 0.481463 66.993164 -26.445669 44.049450 26.157246 1.733062 -23.460981 -1.425147 -6.892899 -4.672530 1.227273 1.101078 7.463163 5.956213 0.012328 -0.375012 0.984452 -0.290069 -10.571696 -1.059549 -0.526684 -6.723562 4.477102 3.418081 -2.580575 
-4.474331 50.317909 94.582153 4.896623 1.923395 46.499039 7.633699 -4.677717 0.156526 0.000000 0.000000 0.000000 -34.905083 9.134262 -12.316360 0.000000 0.000000 0.000000 0.000000 0.000000 0.000000 -12.404479 10.884955 14.841180 -96.542313 42.959236 62.149010 7.904975 3.247761 -68.375870 0.000000 0.000000 0.000000 5.741123 -18.883896 16.510605 73.825562 -25.424953 49.089417 32.620514 9.839831 -23.000568 -1.425001 -7.040930 -5.118543 1.741459 0.866721 6.998450 3.748254 0.208784 -0.217393 1.370498 -0.209532 -10.531065 -1.274288 -0.867326 -7.513871 3.352147 3.564057 -2.795817 
-4.501143 50.380138 94.531357 4.900249 2.281987 46.933441 7.725513 -5.283204 -0.010623 0.000000 0.000000 0.000000 -35.329895 9.663485 -12.473438 0.000000 0.000000 0.000000 0.000000 0.000000 0.000000 -4.479515 12.342107 21.955732 -96.781853 38.515587 63.491177 2.263843 -7.732111 -66.749466 0.000000 0.000000 0.000000 -2.688946 -20.291443 33.049217 80.539650 -23.932508 53.890625 39.283264 17.853359 -21.671045 -1.425155 -7.178951 -5.563935 2.253598 0.644189 6.502459 1.539778 0.405453 -0.049870 1.751157 -0.142528 -10.520802 -1.440823 -1.208020 -8.282192 2.219676 3.728928 -2.992400 
